<svg width="40" height="40" viewBox="0 0 40 40" xmlns="http://www.w3.org/2000/svg" role="img">
  <defs>
    <linearGradient id="tricorn" x1="9" x2="31" y1="7" y2="34">
      <stop stop-color="#ffffff"/>
      <stop offset=".5" stop-color="#e4e8ee"/>
      <stop offset="1" stop-color="#9aa5b2"/>
    </linearGradient>
    <filter id="glow" x="-35%" y="-35%" width="170%" height="170%">
      <feDropShadow dx="0" dy="0" stdDeviation="1.8" flood-color="#ffffff" flood-opacity=".34"/>
      <feDropShadow dx="0" dy="2" stdDeviation="1.2" flood-color="#000000" flood-opacity=".48"/>
    </filter>
  </defs>
  <path d="M20 7.4c-2.5 0-4.5 2.1-4.5 4.8v8.2c0 2-1.5 3.6-3.3 3.6-2.5 0-4.6-2.5-4.6-5.5v-4.1C4.9 16.1 3.2 19.3 3.2 23c0 5.7 5.1 10.2 16.8 14.2C31.7 33.2 36.8 28.7 36.8 23c0-3.7-1.7-6.9-4.4-8.6v4.1c0 3-2.1 5.5-4.6 5.5-1.8 0-3.3-1.6-3.3-3.6v-8.2c0-2.7-2-4.8-4.5-4.8Z" fill="url(#tricorn)" filter="url(#glow)"/>
  <path d="M20 9.6c-1.1 0-2 .9-2 2.2v11.4c0 2.6-2.1 4.7-4.7 4.7-1.6 0-3-.6-4.1-1.6 1.9 2.8 5.4 5.2 10.8 7.3 5.4-2.1 8.9-4.5 10.8-7.3-1.1 1-2.5 1.6-4.1 1.6-2.6 0-4.7-2.1-4.7-4.7V11.8c0-1.3-.9-2.2-2-2.2Z" fill="#f8fafc" opacity=".5"/>
</svg>
